<?xml version="1.0" standalone="no"?>
<!DOCTYPE svg PUBLIC "-//W3C//DTD SVG 20010904//EN"
 "http://www.w3.org/TR/2001/REC-SVG-20010904/DTD/svg10.dtd">
<svg version="1.0" xmlns="http://www.w3.org/2000/svg"
 width="720.000000pt" height="240.000000pt" viewBox="0 0 720.000000 240.000000"
 preserveAspectRatio="xMidYMid meet">

<g transform="translate(0.000000,240.000000) scale(0.100000,-0.100000)"
fill="#000000" stroke="none">
<path d="M1370 2283 c-55 -25 -563 -540 -594 -601 -78 -153 -8 -353 152 -431
50 -24 56 -31 82 -93 67 -160 179 -269 324 -314 l59 -18 29 34 c16 19 44 57
61 84 28 42 32 46 35 26 2 -12 1 -34 -3 -49 -4 -16 -132 -152 -348 -368 l-342
-343 112 0 c61 0 122 4 136 9 13 5 147 132 299 283 324 322 333 335 326 471
-5 85 -23 136 -74 202 -21 28 -22 36 -17 146 3 63 3 140 -1 170 l-7 54 -102 0
c-87 0 -111 4 -163 26 l-61 25 -59 -61 c-61 -63 -156 -125 -192 -125 -33 0
-81 47 -92 92 -22 79 -23 78 342 444 l340 341 -32 7 c-61 12 -174 6 -210 -11z
m57 -843 l72 0 7 -36 c11 -57 -3 -180 -27 -248 -23 -66 -83 -162 -110 -180
-48 -29 -193 78 -242 178 -23 47 -61 167 -54 171 1 1 32 16 68 33 38 18 83 50
105 74 l39 43 35 -17 c23 -12 58 -18 107 -18z"/>
<path d="M1600 2144 c-8 -3 -101 -94 -207 -202 l-191 -197 66 -3 65 -3 202
201 c111 110 199 202 197 205 -7 6 -112 5 -132 -1z"/>
<path d="M1934 1546 c-57 -25 -80 -117 -49 -194 9 -20 45 -67 81 -103 54 -54
66 -73 71 -107 6 -48 -8 -72 -41 -72 -31 0 -46 19 -46 57 0 32 -1 33 -40 33
-40 0 -40 0 -40 -37 0 -21 8 -54 18 -73 31 -63 140 -77 200 -25 23 20 27 32
30 92 5 87 -8 115 -93 198 -61 60 -78 95 -68 136 7 24 48 35 68 19 8 -7 15
-25 15 -41 0 -27 3 -29 40 -29 40 0 40 0 40 38 0 51 -19 84 -60 104 -41 21
-83 22 -126 4z"/>
<path d="M2841 1548 c-13 -7 -34 -26 -45 -41 -20 -27 -21 -41 -21 -232 0 -232
4 -247 83 -275 37 -13 47 -13 84 0 58 21 79 54 85 134 l6 66 -42 0 -41 0 0
-49 c0 -52 -17 -81 -49 -81 -37 0 -41 18 -41 205 0 191 3 205 47 205 27 0 43
-27 43 -74 0 -35 1 -36 40 -36 38 0 40 1 40 33 0 51 -18 102 -45 127 -29 28
-108 37 -144 18z"/>
<path d="M2330 1275 l0 -275 120 0 120 0 0 40 0 40 -75 0 -75 0 0 85 0 85 60
0 60 0 0 40 0 40 -60 0 -60 0 0 70 0 70 75 0 75 0 0 40 0 40 -120 0 -120 0 0
-275z"/>
<path d="M3240 1313 c0 -218 2 -241 20 -270 22 -37 82 -58 133 -47 92 19 97
37 97 324 l0 230 -40 0 -40 0 0 -228 c0 -164 -3 -231 -12 -240 -18 -18 -56
-14 -68 7 -6 12 -10 107 -10 240 l0 221 -40 0 -40 0 0 -237z"/>
<path d="M3710 1275 l0 -275 45 0 45 0 0 120 c0 115 1 120 21 120 51 0 59 -15
59 -108 0 -124 3 -132 54 -132 l41 0 -5 112 c-5 110 -16 151 -42 161 -9 3 -6
12 11 30 32 36 40 137 14 187 -25 49 -54 60 -155 60 l-88 0 0 -275z m164 179
c3 -9 6 -38 6 -64 0 -39 -4 -52 -22 -64 -12 -9 -30 -16 -40 -16 -16 0 -18 10
-18 80 l0 80 34 0 c22 0 36 -6 40 -16z"/>
<path d="M4190 1275 l0 -275 40 0 40 0 0 275 0 275 -40 0 -40 0 0 -275z"/>
<path d="M4480 1510 l0 -40 45 0 45 0 0 -235 0 -235 40 0 40 0 0 235 0 235 45
0 45 0 0 40 0 40 -130 0 -130 0 0 -40z"/>
<path d="M4923 1543 c3 -5 28 -80 56 -167 48 -151 51 -165 51 -268 l0 -108 40
0 40 0 0 118 c0 115 1 122 50 267 28 82 50 153 50 157 0 4 -18 8 -39 8 -40 0
-40 0 -56 -57 -9 -32 -21 -75 -27 -95 -11 -36 -28 -52 -28 -26 0 7 -11 49 -25
95 l-26 83 -45 0 c-25 0 -43 -3 -41 -7z"/>
<path d="M5410 1275 l0 -275 45 0 45 0 0 275 0 275 -45 0 -45 0 0 -275z"/>
<path d="M5722 1304 l3 -246 32 -28 c60 -54 151 -48 197 13 20 27 21 43 24
268 l4 239 -41 0 -41 0 0 -212 c0 -226 -6 -260 -47 -266 -13 -2 -27 5 -37 20
-13 19 -16 57 -16 240 l0 218 -41 0 -40 0 3 -246z"/>
<path d="M6200 1275 l0 -275 35 0 35 0 0 202 c0 111 2 199 4 197 2 -2 16 -85
31 -184 14 -99 29 -188 31 -197 4 -13 16 -18 40 -18 19 0 34 4 34 8 0 25 60
395 64 400 3 3 6 -88 6 -201 l0 -207 35 0 35 0 0 275 0 275 -58 0 -59 0 -22
-162 c-21 -150 -38 -240 -40 -211 -1 6 -12 88 -26 183 -14 95 -25 176 -25 181
0 5 -27 9 -60 9 l-60 0 0 -275z"/>
<path d="M1100 753 c-18 -6 -440 -424 -440 -435 0 -5 33 -8 73 -8 l72 0 225
225 225 225 -70 -1 c-39 0 -77 -3 -85 -6z"/>
</g>
</svg>
